<svg xmlns="http://www.w3.org/2000/svg" viewBox="0 0 142 122"><title>mobile-logo</title><path d="M63.9,24.3c-.12-.13-.25-.24-.38-.36h0l-.42-.35c-.15-.11-.31-.21-.47-.31A7.25,7.25,0,0,0,62.46,25,8.44,8.44,0,0,0,63.93,30a13.1,13.1,0,0,1,1.18-3.77A5.07,5.07,0,0,0,63.9,24.3ZM79.27,1.7h0a.09.09,0,0,1,0,.05A.17.17,0,0,0,79.27,1.7ZM67.36,24a1.53,1.53,0,0,1-.08-.49,1.53,1.53,0,0,0,.07.49l.07.18Zm-3.46.28c-.12-.13-.25-.24-.38-.36h0l-.42-.35c-.15-.11-.31-.21-.47-.31A7.25,7.25,0,0,0,62.46,25,8.44,8.44,0,0,0,63.93,30a13.1,13.1,0,0,1,1.18-3.77A5.07,5.07,0,0,0,63.9,24.3ZM62.59,4.65l0-.06h0ZM79.27,1.7h0a.09.09,0,0,1,0,.05A.17.17,0,0,0,79.27,1.7Zm-16.68,3,0-.06h0ZM67.36,24a1.53,1.53,0,0,1-.08-.49,1.53,1.53,0,0,0,.07.49l.07.18Zm-3.46.28c-.12-.13-.25-.24-.38-.36h0l-.42-.35c-.15-.11-.31-.21-.47-.31A7.25,7.25,0,0,0,62.46,25,8.44,8.44,0,0,0,63.93,30a13.1,13.1,0,0,1,1.18-3.77A5.07,5.07,0,0,0,63.9,24.3Zm60.79,21.53a9.2,9.2,0,0,1-1.14,1.58,1.25,1.25,0,0,1,1,.3,1.05,1.05,0,0,1,.48.75.62.62,0,0,1-.11.33A7.44,7.44,0,0,1,123,50.62a3.64,3.64,0,0,0,.08-.71,1.23,1.23,0,0,0-.88-1.37A11.7,11.7,0,0,1,120,49.7a2.77,2.77,0,0,1,.79,2.25,15.35,15.35,0,0,1-3,1.08,5.56,5.56,0,0,0-1.27-2.56c-.36,0-.73,0-1.08,0-1,0-2-.1-2.38-.14a4.18,4.18,0,0,1,2.5,3.07c-.78.1-2.11.21-2.89.22a11,11,0,0,0-4.23-4.44,11,11,0,0,1-2.38-2c-.66-.67-1.59-1.81-2.37-2.45,1.61,2.76,1.75,8.09,1.75,8.35.07,2.47-.88,7.39-.88,9.71a13.85,13.85,0,0,1-1.34-5.74c-.14-2.89.21-6.26.06-8a10.86,10.86,0,0,0-1.31-4.95,12.82,12.82,0,0,0-2.57-2.9c1.31,2.05,1.89,5.07,2,8.56.07,2-.08,3.9-.08,5.85,0,4.19.69,10.43,5.08,12.51a20.15,20.15,0,0,1,0-7.55,38.27,38.27,0,0,0,.52-8.3A10.32,10.32,0,0,1,108.58,58c0,1.21-.16,2.36-.16,3.5a7.58,7.58,0,0,0,3.07,6.06c-2.66-4.95,1-10.86-4.66-17.79,2.51,1.42,3.77,4.76,4,5.24a22.34,22.34,0,0,0,10.67-2.19c1.9-1,4.67-3,5.59-5.91A3,3,0,0,0,124.69,45.83Zm1.93-3.69a2.34,2.34,0,0,0-1.27.44,14,14,0,0,1-.29,2.14,2.5,2.5,0,0,1,2.63.39,13.39,13.39,0,0,0,.28-2.39A2.23,2.23,0,0,0,126.62,42.14ZM121,36.57a5.24,5.24,0,0,0-3.35,2.55,5.57,5.57,0,0,0-.71,1.83c-.13.71.25,1,.58,1a.9.9,0,0,0,.71-.51c.19-.32.35-.72.65-1.21a3.66,3.66,0,0,1,2.11-1.63,1.68,1.68,0,0,1-.34-1A1.48,1.48,0,0,1,121,36.57Zm6.1,2.3a3.08,3.08,0,0,0-2.25,1,2.93,2.93,0,0,1,.5,1.39,2.53,2.53,0,0,1,2.57-.25A4.93,4.93,0,0,0,127.05,38.87Zm-4-2.28a2,2,0,0,0-.51,2.09,4.49,4.49,0,0,1,1.32.47,2.25,2.25,0,0,1,1.7-1.67A4.93,4.93,0,0,0,123.1,36.59ZM99,55.53c-.12-3.2-.49-4.9-.37-8a26.13,26.13,0,0,0-.4-5.3A13,13,0,0,0,94,36.27a25.61,25.61,0,0,1,2.41,7.95c.16,2.43.39,5,.72,7.76.22,1.94,1.21,5,1.23,6.36C99,58.1,99.06,57.68,99,55.53ZM94.37,44.71a32.29,32.29,0,0,0-2-7.63,15.67,15.67,0,0,0-5.24-6.59c2.48,3.18,2.63,6.29,3.31,8.49.72,2.37,3.2,6.26,2.44,13.24C94.45,51.29,94.59,47.15,94.37,44.71ZM53.61,97.33l-.62,0,.62,1.89H34l-.17.57H54.38S53.89,98.18,53.61,97.33ZM48.33,89V68.75l-.68.65V88.48c0,4.24,1.16,6.11,2.59,7C49.14,94.43,48.33,92.54,48.33,89Zm50-13.15a5,5,0,0,0-1.44.24c-3.31,1.14-3.2,5-3.09,6.15A10.43,10.43,0,0,0,94,83.42l.57-.19c0-.15,0-.29-.05-.45-.11-1.16-.22-5,3.09-6.15A4.67,4.67,0,0,1,99,76.39a3.89,3.89,0,0,1,2.16.66A4.19,4.19,0,0,0,98.33,75.86Zm16.24,7.72-.11-.59a17.3,17.3,0,0,0-4.77-9.31,14,14,0,0,0-1.58-1.32c.31.25.6.51.89.79a17.27,17.27,0,0,1,4.77,9.32l.11.58L95.52,89.18A7.2,7.2,0,0,0,98,92.25a7.3,7.3,0,0,1-1.7-2.56ZM114,90.94a15.23,15.23,0,0,1-11.85,9.37,15.07,15.07,0,0,1-7.25-.47,14.27,14.27,0,0,1-4-2,14.34,14.34,0,0,0,9.19,3.23,16.28,16.28,0,0,0,2.69-.23,15.2,15.2,0,0,0,11.94-9.63ZM37.91,69.48S35,63.86,34.85,59.06l-.64.07a31.19,31.19,0,0,0,3,9.82l.36.71s-1.35.47-1.62.55l.25.66,2.06-.68ZM30.44,97.31l-.61,0,.61,1.89H8l-.17.57H31.22Zm-6.28-8.09v-.36l-.67.3c.12,2.93,1.05,5,2.77,6.07C24.9,94,24.19,92,24.16,89.22Zm.55-22.85a9.08,9.08,0,0,0-1.24.06V84.31c0,.73,0,1-1.12,2.53,0,0,.2,0,1-.87a2.67,2.67,0,0,0,.76-1.88c0-.19,0-15.11,0-17.13a7.74,7.74,0,0,1,1.23-.07,17.25,17.25,0,0,1,8.55,2.37C32.39,67.83,28.34,66.37,24.71,66.37ZM12,66.38c-4.35,0-9,2.1-9.77,3.69l-.28.51L.56,70.15l-.19.43,2.1.69.38-.74c.73-1.63,5.44-3.62,9.8-3.62h.54v-.46A7.08,7.08,0,0,0,12,66.38ZM62.4,107.06a11.74,11.74,0,0,1,1.82-6.34l-.74-.43a11.72,11.72,0,0,0-1.76,6.24c0,3.25,1.1,5.69,2.93,6.86C63.22,112.1,62.4,109.88,62.4,107.06ZM78.55,95.27a15.23,15.23,0,0,1,5.83,11.82c0,8.34-7.19,14.38-17.11,14.38h0a19.24,19.24,0,0,1-11.45-3.35A18.9,18.9,0,0,0,67.93,122h0c9.91,0,17.11-6,17.11-14.38A15.35,15.35,0,0,0,78.55,95.27ZM67.38,97.54a17.24,17.24,0,0,1-10.26-2.9c2.45,2,6,3.42,11,3.42a3.41,3.41,0,0,1,1.87.63A4,4,0,0,0,67.38,97.54ZM62.52,84a11.33,11.33,0,0,0,2.21,7.21,3.28,3.28,0,0,0,.7.54s0,0,0,0a11.36,11.36,0,0,1-2.21-7.2C63.2,81,64.39,78,66,76.73c0-.31,0-.62,0-.92C64,76.62,62.52,80,62.52,84ZM77.28,72.07a14.86,14.86,0,0,1,5.38,11.42,14.41,14.41,0,0,1-5.16,11c.24.16.47.33.7.51a14.39,14.39,0,0,0,5.16-11A14.87,14.87,0,0,0,77.28,72.07Zm13.55-17.6-5,11.75-.4,0a20.5,20.5,0,0,0-13.94,6.83,24.66,24.66,0,0,1,14.63-6.3l.4-.05L91.7,54.57Zm-33.67-.26-3.61,8.6h-.7a14.19,14.19,0,0,0-12.28,6.67,16.14,16.14,0,0,1,12.84-6.14c.39,0,.63,0,.63,0l3.84-9.15ZM128.28,89v-5l-.68.45v4.06c0,3.54.79,5.72,2.51,6.79C128.87,94,128.28,92,128.28,89Zm-.68-19.7v3.51c.22-.23.45-.45.68-.67V68.66Zm5.88,27.92-.63,0,.66,2H113.75l-.17.57h20.75Zm7.7-27.56-2.9,9-.74-.2a9.12,9.12,0,0,0-2.49-.34,10.17,10.17,0,0,0-6.93,2.78,10.32,10.32,0,0,0-1.84,2.48s3.84-5.23,9.46-4.74a15.29,15.29,0,0,1,3.19.76L142,69.76ZM66.75,78.52c4-6.79,9-12,18.59-12.94l5.21-12.34c-4.64-.92-18.84,3.64-22.83,16.14l-.74,0C58.72,69.36,52,75.69,52,83.49c0,4.56,3.14,13.36,15.29,13.36,3.08,0,6.33,4.35,6.33,9.68s-3,8.32-6.33,8.32c-3.59,0-6.35-3-6.35-8.32a12.14,12.14,0,0,1,2.21-7.1c-4.25-2.29-12.4.3-12.4,8,0,7.23,6.28,13.35,16.41,13.35h0c9.07,0,16.43-5.38,16.43-13.7a14.69,14.69,0,0,0-6.89-12.24,3.82,3.82,0,0,0-.54-.26,13.81,13.81,0,0,0,5.72-11.1,14.09,14.09,0,0,0-6.16-11.65,21.82,21.82,0,0,0-6.47,4.21C70.9,77.58,72,80.57,72,84a13.47,13.47,0,0,1-1.36,6.13,4.67,4.67,0,0,1-.47.82,5.82,5.82,0,0,1-.8,1,3.73,3.73,0,0,1-5.18-.24A11.8,11.8,0,0,1,61.78,84c0-4.9,2.2-8.89,4.92-9.06A23.82,23.82,0,0,0,66.75,78.52ZM39.88,69.17a14.91,14.91,0,0,1,13.17-7.05l3.66-8.8C50.65,53.23,39.88,57.17,39.88,69.17Zm58.45,6.69a5,5,0,0,0-1.44.24c-3.31,1.14-3.2,5-3.09,6.15A10.43,10.43,0,0,0,94,83.42l.57-.19c0-.15,0-.29-.05-.45-.11-1.16-.22-5,3.09-6.15A4.67,4.67,0,0,1,99,76.39a3.89,3.89,0,0,1,2.16.66A4.19,4.19,0,0,0,98.33,75.86Zm0,0a5,5,0,0,0-1.44.24c-3.31,1.14-3.2,5-3.09,6.15A10.43,10.43,0,0,0,94,83.42l.57-.19c0-.15,0-.29-.05-.45-.11-1.16-.22-5,3.09-6.15A4.67,4.67,0,0,1,99,76.39a3.89,3.89,0,0,1,2.16.66A4.19,4.19,0,0,0,98.33,75.86Zm0,0a5,5,0,0,0-1.44.24c-3.31,1.14-3.2,5-3.09,6.15A10.43,10.43,0,0,0,94,83.42l.57-.19c0-.15,0-.29-.05-.45-.11-1.16-.22-5,3.09-6.15A4.67,4.67,0,0,1,99,76.39a3.89,3.89,0,0,1,2.16.66A4.19,4.19,0,0,0,98.33,75.86Zm0,0a5,5,0,0,0-1.44.24c-3.31,1.14-3.2,5-3.09,6.15A10.43,10.43,0,0,0,94,83.42l.57-.19c0-.15,0-.29-.05-.45-.11-1.16-.22-5,3.09-6.15A4.67,4.67,0,0,1,99,76.39a3.89,3.89,0,0,1,2.16.66A4.19,4.19,0,0,0,98.33,75.86Zm0,0a5,5,0,0,0-1.44.24c-3.31,1.14-3.2,5-3.09,6.15A10.43,10.43,0,0,0,94,83.42l.57-.19c0-.15,0-.29-.05-.45-.11-1.16-.22-5,3.09-6.15A4.67,4.67,0,0,1,99,76.39a3.89,3.89,0,0,1,2.16.66A4.19,4.19,0,0,0,98.33,75.86Zm0,0a5,5,0,0,0-1.44.24c-3.31,1.14-3.2,5-3.09,6.15A10.43,10.43,0,0,0,94,83.42l.57-.19c0-.15,0-.29-.05-.45-.11-1.16-.22-5,3.09-6.15A4.67,4.67,0,0,1,99,76.39a3.89,3.89,0,0,1,2.16.66A4.19,4.19,0,0,0,98.33,75.86Zm0,0a5,5,0,0,0-1.44.24c-3.31,1.14-3.2,5-3.09,6.15A10.43,10.43,0,0,0,94,83.42l.57-.19c0-.15,0-.29-.05-.45-.11-1.16-.22-5,3.09-6.15A4.67,4.67,0,0,1,99,76.39a3.89,3.89,0,0,1,2.16.66A4.19,4.19,0,0,0,98.33,75.86Zm0,0a5,5,0,0,0-1.44.24c-3.31,1.14-3.2,5-3.09,6.15A10.43,10.43,0,0,0,94,83.42l.57-.19c0-.15,0-.29-.05-.45-.11-1.16-.22-5,3.09-6.15A4.67,4.67,0,0,1,99,76.39a3.89,3.89,0,0,1,2.16.66A4.19,4.19,0,0,0,98.33,75.86Zm0,0a5,5,0,0,0-1.44.24c-3.31,1.14-3.2,5-3.09,6.15A10.43,10.43,0,0,0,94,83.42l.57-.19c0-.15,0-.29-.05-.45-.11-1.16-.22-5,3.09-6.15A4.67,4.67,0,0,1,99,76.39a3.89,3.89,0,0,1,2.16.66A4.19,4.19,0,0,0,98.33,75.86ZM109.5,88.4c-1.14,2.23-3.57,5.47-8.29,5.47-4.95,0-6.55-4.82-6.65-5.13l0,0,18.46-6.17c-1.49-7.9-7.47-13.69-15.88-12.36A14.52,14.52,0,0,0,85.31,87.35C86.89,96.13,94.08,101,102,99.65A14.77,14.77,0,0,0,113.6,90ZM93.08,82.32c-.22-2.16.2-5.72,3.54-6.87s5.52,1.29,6.6,3.19a11.41,11.41,0,0,1,.94,2.13S96.6,83.21,93.43,84.3A10,10,0,0,1,93.08,82.32Zm3.81-6.22c-3.31,1.14-3.2,5-3.09,6.15A10.43,10.43,0,0,0,94,83.42l.57-.19c0-.15,0-.29-.05-.45-.11-1.16-.22-5,3.09-6.15A4.67,4.67,0,0,1,99,76.39a3.89,3.89,0,0,1,2.16.66,4.19,4.19,0,0,0-2.85-1.19A5,5,0,0,0,96.89,76.1Zm1.44-.24a5,5,0,0,0-1.44.24c-3.31,1.14-3.2,5-3.09,6.15A10.43,10.43,0,0,0,94,83.42l.57-.19c0-.15,0-.29-.05-.45-.11-1.16-.22-5,3.09-6.15A4.67,4.67,0,0,1,99,76.39a3.89,3.89,0,0,1,2.16.66A4.19,4.19,0,0,0,98.33,75.86Zm0,0a5,5,0,0,0-1.44.24c-3.31,1.14-3.2,5-3.09,6.15A10.43,10.43,0,0,0,94,83.42l.57-.19c0-.15,0-.29-.05-.45-.11-1.16-.22-5,3.09-6.15A4.67,4.67,0,0,1,99,76.39a3.89,3.89,0,0,1,2.16.66A4.19,4.19,0,0,0,98.33,75.86Zm0,0a5,5,0,0,0-1.44.24c-3.31,1.14-3.2,5-3.09,6.15A10.43,10.43,0,0,0,94,83.42l.57-.19c0-.15,0-.29-.05-.45-.11-1.16-.22-5,3.09-6.15A4.67,4.67,0,0,1,99,76.39a3.89,3.89,0,0,1,2.16.66A4.19,4.19,0,0,0,98.33,75.86Zm0,0a5,5,0,0,0-1.44.24c-3.31,1.14-3.2,5-3.09,6.15A10.43,10.43,0,0,0,94,83.42l.57-.19c0-.15,0-.29-.05-.45-.11-1.16-.22-5,3.09-6.15A4.67,4.67,0,0,1,99,76.39a3.89,3.89,0,0,1,2.16.66A4.19,4.19,0,0,0,98.33,75.86Zm0,0a5,5,0,0,0-1.44.24c-3.31,1.14-3.2,5-3.09,6.15A10.43,10.43,0,0,0,94,83.42l.57-.19c0-.15,0-.29-.05-.45-.11-1.16-.22-5,3.09-6.15A4.67,4.67,0,0,1,99,76.39a3.89,3.89,0,0,1,2.16.66A4.19,4.19,0,0,0,98.33,75.86Zm0,0a5,5,0,0,0-1.44.24c-3.31,1.14-3.2,5-3.09,6.15A10.43,10.43,0,0,0,94,83.42l.57-.19c0-.15,0-.29-.05-.45-.11-1.16-.22-5,3.09-6.15A4.67,4.67,0,0,1,99,76.39a3.89,3.89,0,0,1,2.16.66A4.19,4.19,0,0,0,98.33,75.86Zm0,0a5,5,0,0,0-1.44.24c-3.31,1.14-3.2,5-3.09,6.15A10.43,10.43,0,0,0,94,83.42l.57-.19c0-.15,0-.29-.05-.45-.11-1.16-.22-5,3.09-6.15A4.67,4.67,0,0,1,99,76.39a3.89,3.89,0,0,1,2.16.66A4.19,4.19,0,0,0,98.33,75.86Zm0,0a5,5,0,0,0-1.44.24c-3.31,1.14-3.2,5-3.09,6.15A10.43,10.43,0,0,0,94,83.42l.57-.19c0-.15,0-.29-.05-.45-.11-1.16-.22-5,3.09-6.15A4.67,4.67,0,0,1,99,76.39a3.89,3.89,0,0,1,2.16.66A4.19,4.19,0,0,0,98.33,75.86ZM33.44,58.55c-15.32,2.76-29.27.11-30.33.09A32.58,32.58,0,0,1,0,69.28l1.47.49c1.09-2,6-4.07,10.44-4.07,1.08,0,1.91,0,1.91.54V88.48c0,6.07-3.06,7.89-6.16,8.35l-.54,1.66H29.46l-.55-1.66c-3-.35-6.09-2.24-6.17-8.12A21.44,21.44,0,0,1,17.86,91c1.39-.76,3.43-3.69,4.58-5.63a1.66,1.66,0,0,0,.3-1.08V66.22c0-.49.82-.54,1.91-.54,4.42,0,9.65,2.13,10.45,4.07l1.46-.49S33.63,63.57,33.44,58.55ZM52.08,96.83c-2.86-.46-5.17-2.28-5.17-8.35V68.36c-2.59,2.47-13.18,5.32-13.18,5.32v1.56a5.34,5.34,0,0,1,4.91,5.56v7.68c0,6.07-1.94,7.89-5,8.35l-.54,1.66H52.61Zm80.37-26.71a14.66,14.66,0,0,0-5.59,4.51V68.28l-.19.17c-3.78,3.28-12.9,5.21-13,5.23l-.09,0v1.75h.11a5.24,5.24,0,0,1,4.74,5.37v7.6c0,6.52-2.47,7.77-4.88,8.13h-.07l-.61,1.88h19.68L132,96.58h-.08c-3.42-.55-5-3.14-5-8.13V83.7l-.19.13a11.32,11.32,0,0,0-2.55,2.83,13.85,13.85,0,0,1,3.47-6.3,10.83,10.83,0,0,1,7.41-3,9.68,9.68,0,0,1,2.67.38l.11,0,2.91-9A16.13,16.13,0,0,0,132.45,70.12ZM89.56,44.52c-.17-1.71-1.43-4.08-2-5.66-.79-2.29-1.34-7.2-2.49-9.88a8.09,8.09,0,0,0-2.36-2.92,10.06,10.06,0,0,1,1.13,4.16c.13,2,1.06,3.82.68,5.52-.91-1.93-2.14-2.53-2.28-6.83a10.28,10.28,0,0,0-1.42-4.84,17.35,17.35,0,0,0-2.31-2.56c0-.09-.08-.17-.13-.26a2.91,2.91,0,0,1-.29-1.05A1.26,1.26,0,0,1,80.6,20c3-4.4.92-7.89.92-7.89a3.6,3.6,0,0,1,1.7.52,10.55,10.55,0,0,0-3.18-7,8.78,8.78,0,0,0,.09-2.53c-.08-.59-.27-1.5-.86-1.44a.17.17,0,0,1,0,.05.09.09,0,0,0,0-.05l-.12,0c-.45.11-1.85.66-2.26.81s-1,.43-1.12.3-2-1.65-6.15-1.33c-2.89-.44-5.9-.15-7,.57-.66-.32-1.49-.82-2-1.11C59.33.17,58.33-.3,57.77.22A3.08,3.08,0,0,0,57.38,2a11.44,11.44,0,0,0,.5,3.09c-1,.87-4,3.9-3.76,6a2.31,2.31,0,0,1,2.18-.21,6.63,6.63,0,0,0-1.84,4.88,10,10,0,0,0,.55,3.3c.38-.86.93-1.24,1.42-1.24s1,.55,1,1.44a3,3,0,0,1-.12.85c-.82,3.3-2.33,5.57-1.71,12.32-1.39,3.27-.77,7.64-.15,9.62a20,20,0,0,0,6.15,9.48A37.12,37.12,0,0,0,66.34,55c0-.6-.59-2.41-3-4.83C60.1,47,56.62,41.91,57.13,35.2c.09.35.19.68.29,1,2.24,7.22,5.8,9.18,9,12.81A14.55,14.55,0,0,1,68.64,52,23,23,0,0,1,70.1,42c1.4-3.16,4.11-6.54,5.32-9.78a11.68,11.68,0,0,0,1.07-4.7,13.59,13.59,0,0,1-.81,9.73c-1.19,2.53-3.08,4-4.32,6.81a7.6,7.6,0,0,0-.11,5.1c.85-2.45,2.71-4.64,4.26-6.64,1.7-2.21,3.4-4.36,3.8-7.16a17.38,17.38,0,0,0,0-4.14c.85,2.47,1.77,5,1.47,7.62-.49,4.36-3.7,7.29-6.65,10.3-.66.68-4.09,3.38-5.75,5.65a8.2,8.2,0,0,0-1.64,7.15c.66-3,2.83-5.62,6-7.92a25.57,25.57,0,0,0,5.72-5.18,29.43,29.43,0,0,0,3.73-6.28,14,14,0,0,1,.45,3.83c-.11,2.5-.8,4.74-2,5.88,4.73-1.79,4.23-7.32,4.09-9-.22-2.72-1.83-4.79-2.51-7.69a12.69,12.69,0,0,1,3.35,5c.73,1.67,1.72,3,2.11,4.7a11.48,11.48,0,0,1-.37,5.54C88.77,49.91,89.84,47.07,89.56,44.52ZM74,3.89a2.42,2.42,0,0,1,.31.45,2.08,2.08,0,0,1-.84,2.22,2.48,2.48,0,0,0-.19-1.9,3.63,3.63,0,0,0-1.9-1.86A4.09,4.09,0,0,1,74,3.89ZM72.84,5.7a.9.9,0,0,1-.3.7,2.82,2.82,0,0,0-1.1-1.9A1.25,1.25,0,0,1,72.84,5.7Zm-2.9-1.58A2.39,2.39,0,0,0,68.67,6a1.26,1.26,0,0,1-.4-.89C68.27,4.66,68.67,4.16,69.94,4.12Zm-3.62-.61c.17-.65.92-1.07,2.41-1.19a2.58,2.58,0,0,0-1.42,1.82,3.34,3.34,0,0,0,.24,1.76c-.23-.23-1.32-1.22-1.27-2.18A1.55,1.55,0,0,1,66.32,3.51Zm-5,2.23a1.35,1.35,0,0,1-.46-.92c0-.63.72-1.44,3.87-1.92a4.28,4.28,0,0,0-2,1.45l0,0a1.09,1.09,0,0,0-.08.15s0,0,0,0h0l0,.1a.25.25,0,0,0,0,.08.77.77,0,0,0,0,.3.92.92,0,0,0,1,.8,2.11,2.11,0,0,0,.9-.25,2.13,2.13,0,0,1,1.15-.5,2,2,0,0,1,1,.26,5.8,5.8,0,0,0,1,1.73A1.93,1.93,0,0,0,67.15,7c-.33,0-.55.15-1,.15a3.76,3.76,0,0,1-2-.75,2,2,0,0,0-.66-.09A2.81,2.81,0,0,0,61,7.8a3.53,3.53,0,0,1,1.43-.3c1.17,0,2.17.55,3.35.55a4,4,0,0,0,1.85-.48A2.74,2.74,0,0,1,65,8.72c-.94,0-2-.16-3-.16a4.28,4.28,0,0,0-4.08,2.06C58.4,6.63,61.17,5.79,61.36,5.74ZM66.7,45.38c-2-3.31-7.64-7.75-9-13.84h0a12.13,12.13,0,0,1-.3-2.5,28.92,28.92,0,0,1,1.38-8,5.61,5.61,0,0,0,2.56,1.49C59.39,21,57.93,16.83,58,14.59a3.07,3.07,0,0,0-1.35,1.13h0c.09-1.38.85-5.1,5.86-6a6.49,6.49,0,0,0-3.24,4.58,4.26,4.26,0,0,1,1.88-1.23h0a5.24,5.24,0,0,0,.07,4.35c.26-.47.61-1.07,1.28-1.07,0,3.1,1.94,3,3.39,4.94a14.93,14.93,0,0,1,1.52,2.88L67.35,24a1.53,1.53,0,0,1-.07-.49,1.53,1.53,0,0,0,.08.49l.06.18h0l.09.16a3.12,3.12,0,0,0,2.8,1.16,4.54,4.54,0,0,0,2.85-.91h0c-.8,2.15-1.8,2.58-2.66,2.58A7.38,7.38,0,0,1,69.29,27c-3,1.16-4.67,5.23-4.67,6.62v0l0,0a19.37,19.37,0,0,1-5.13-6.81,11.1,11.1,0,0,0-.16,1.88c0,5.53,3.46,6.14,6.45,11.11,0,0,.82-10.66,8.7-12.17C69.72,32.11,67.55,40.63,66.7,45.38Zm9.13-29.64a9.62,9.62,0,0,0-1,2.76,11.38,11.38,0,0,0-.35,3.25c0,.68-.23.79-.48.79a3.14,3.14,0,0,1-.49-.11h0V22a11.67,11.67,0,0,0-.09-1.58c0-.24-.08-.33-.11-.32s-.12.14-.18.33c-.17.51-.49,1.43-.58,1.74h0A6.71,6.71,0,0,0,70.15,22c-.18-.55-.43-1.44-.61-1.9,0-.09-.1-.22-.16-.22s-.07.08-.09.28c-.06.47-.17,1.84-.17,2.11-.41.05-.74.35-.91.35-.34,0-.67-.4-1-1-.89-1.66-1.09-5-.33-6.22-2.15,0-1.66,2.73-1.61,2.94a5.87,5.87,0,0,1-1.75-3.69,2.62,2.62,0,0,1,1.11-2.19,3.25,3.25,0,0,1,.7-2.46,3.21,3.21,0,0,1,2.78-.85,1.83,1.83,0,0,0-1.42,1.54,3,3,0,0,0-1.19.5,10.64,10.64,0,0,1,4.08.28c-.29,0-.86,0-1.37,0a6.91,6.91,0,0,0-1.59.14,2.56,2.56,0,0,0,.09.86h0a4.3,4.3,0,0,0-1.92,1.06,13.35,13.35,0,0,1,4.91-.95h0a14,14,0,0,0-2.33,1.06,2.54,2.54,0,0,0,1.35.45h0c.22.49.74,2.17.92,2.51s.2.37.26.36.09-.08.12-.32c.09-.57,0-1.48.1-2.58h0c.55,0,1.33-.18,2-.18a5.29,5.29,0,0,0-.07-1.83c-.09-.55-1.1-.79-1.55-1.32a5.33,5.33,0,0,0-1.25-1.29c.81,0,1-.55,1.7-.55.51,0,1.14.43,1.5.41a10.25,10.25,0,0,1,1.25-.22c.61,0,1,.37,1,.69h.06l-.06,0c0,.75-1.86,1.43-1.85,2.35,0,0,0,.45,0,.62a5.29,5.29,0,0,1-.12,1.18c.44.05,1,.24,1.14.26,0,0-.2,2.28-.19,2.76,0,.09,0,.23.06.23s.15-.11.28-.36a26,26,0,0,0,1.06-2.38,1,1,0,0,0,.34.05,1.23,1.23,0,0,0,1-.66l-1.05-.44c-.58-.22-1.24-.49-1.56-.58a15.84,15.84,0,0,1,2.94.46A6.75,6.75,0,0,0,77.28,12a2.85,2.85,0,0,1,.19,1.05A3.11,3.11,0,0,1,75.83,15.74Zm-.19-4.55a4.58,4.58,0,0,1,1.69.36s-.76.08-1.75.08c-.41,0-.86,0-1.3-.05h0A2.32,2.32,0,0,1,75.64,11.19ZM73.93,7.88a4.38,4.38,0,0,0,2.22.77c.69,0,1.28-.18,1.86-.18a2,2,0,0,1,1.45.58,3.1,3.1,0,0,0-2.7-1.67,1.94,1.94,0,0,0-.87.18,1.5,1.5,0,0,1-.78.22c-.45,0-.86-.27-1.34-.18a3.83,3.83,0,0,0,.61-1.51,1,1,0,0,1,.73-.28,1.67,1.67,0,0,1,1.31.78.49.49,0,0,0,.32.12c.3,0,.53-.36.53-.8a1.08,1.08,0,0,0-.08-.39h0a1,1,0,0,1-.06-.14l0,0a.69.69,0,0,0,0-.1A.51.51,0,0,0,77,5.1a4.28,4.28,0,0,0-2.23-1.78,7.79,7.79,0,0,1,1.79.37h0a4.9,4.9,0,0,1,.75.31c.83.43,1.26,1,1.26,1.57a1.57,1.57,0,0,1-.78,1.26c2.19.22,3.24,1.29,3.47,4.8-1-1.78-1.81-2.08-3.1-2.06A4.93,4.93,0,0,1,73.93,7.88Zm4.81,5.46a4.81,4.81,0,0,1,1.15.33A4.1,4.1,0,0,0,78.31,11a3.4,3.4,0,0,1,3,3.66A6.74,6.74,0,0,1,80.8,17,3.56,3.56,0,0,0,80,15.6a5.11,5.11,0,0,1-.77,2.13,6.73,6.73,0,0,1-1.46,1.62C78.55,17.79,79.42,15.4,78.74,13.34Z" fill="#fff"/></svg>